<?xml version="1.0" standalone="no"?>
<!DOCTYPE svg PUBLIC "-//W3C//DTD SVG 20010904//EN"
 "http://www.w3.org/TR/2001/REC-SVG-20010904/DTD/svg10.dtd">
<svg version="1.0" xmlns="http://www.w3.org/2000/svg"
 width="1299.000000pt" height="1039.000000pt" viewBox="0 0 1299.000000 1039.000000"
 preserveAspectRatio="xMidYMid meet">

<g transform="translate(0.000000,1039.000000) scale(0.100000,-0.100000)"
fill="#000000" stroke="none">
<path d="M2934 9502 c-177 -2 -244 -6 -251 -15 -12 -14 -112 -207 -318 -612
-81 -159 -178 -348 -214 -418 -53 -102 -63 -129 -52 -136 18 -12 188 -47 316
-66 55 -8 201 -20 325 -26 124 -7 229 -15 234 -20 4 -4 -4 -117 -18 -251 -15
-133 -28 -254 -29 -268 -2 -19 2 -25 18 -23 10 1 27 -3 37 -8 17 -9 18 -41 18
-549 l0 -540 49 0 c35 0 51 4 55 16 3 9 6 256 6 550 l0 535 31 6 30 6 -6 66
c-3 36 -10 95 -15 131 -5 36 -12 97 -15 135 -3 39 -11 112 -17 163 l-10 92
-63 0 c-202 0 -563 38 -632 67 -78 32 -19 66 150 88 313 40 702 39 1013 -1
161 -21 199 -33 199 -65 0 -30 -39 -50 -185 -96 l-105 -33 85 5 c156 11 470
74 470 94 0 10 -124 267 -383 794 l-186 377 -135 0 c-74 0 -140 1 -148 3 -7 1
-122 1 -254 -1z"/>
<path d="M9595 8405 c-60 -7 -171 -23 -245 -35 -74 -12 -163 -25 -197 -31
-248 -37 -503 -206 -694 -459 -59 -79 -164 -302 -203 -432 -36 -120 -76 -322
-76 -387 0 -40 -14 -70 -27 -57 -4 4 -8 80 -7 169 2 391 119 703 377 1000 27
32 48 59 46 61 -2 2 -29 0 -59 -5 -30 -4 -143 -20 -250 -34 -107 -14 -224 -30
-260 -35 -36 -6 -120 -17 -187 -25 -134 -17 -275 -60 -378 -116 -326 -178
-592 -863 -624 -1607 -9 -211 -24 -199 -63 48 -16 99 -16 449 0 575 52 410
192 764 373 945 27 27 46 51 41 53 -4 3 -34 1 -67 -4 -33 -4 -152 -20 -265
-34 -414 -52 -443 -58 -573 -121 -281 -137 -488 -428 -587 -829 -50 -202 -61
-299 -67 -587 -3 -148 -9 -268 -13 -268 -13 0 -28 72 -46 209 -13 105 -15 182
-11 350 6 258 27 392 92 585 57 169 163 360 256 461 23 25 40 48 37 51 -5 5
-236 -22 -268 -31 -18 -6 -128 -21 -275 -40 -322 -41 -391 -56 -474 -102 -201
-112 -340 -367 -420 -768 -35 -177 -49 -316 -58 -558 -3 -98 -9 -180 -13 -182
-30 -19 -72 278 -74 517 -1 107 -4 154 -12 150 -5 -4 -37 -36 -69 -72 -117
-127 -227 -207 -378 -271 -168 -72 -165 -72 -812 -78 l-580 -6 -58 -25 c-126
-54 -222 -163 -251 -285 -15 -63 -36 -488 -36 -720 0 -258 67 -499 179 -647
59 -78 138 -131 239 -157 27 -8 42 -17 42 -27 0 -9 -32 -133 -72 -275 -49
-177 -68 -263 -61 -270 6 -6 33 -7 73 -2 56 7 65 11 80 38 9 17 72 131 139
255 67 124 126 229 131 234 6 6 211 0 512 -14 277 -12 712 -32 968 -44 l465
-21 3 -26 c2 -14 -19 -104 -47 -200 -27 -96 -47 -177 -44 -181 2 -5 32 -8 67
-8 l62 0 46 83 c25 45 65 118 89 162 23 44 53 97 67 119 l24 38 141 -6 c315
-15 1029 -47 1137 -51 1210 -52 1190 -51 1206 -67 6 -7 92 -202 189 -433 98
-231 187 -441 198 -468 22 -54 36 -60 118 -55 l54 3 0 399 0 399 125 64 c69
35 141 73 160 85 19 11 76 44 125 73 138 80 416 265 506 336 275 218 367 297
508 434 369 361 586 671 778 1115 84 193 176 500 212 705 76 435 41 893 -86
1124 -42 77 -112 169 -146 194 -48 36 -96 62 -102 55 -3 -3 6 -28 20 -57 55
-108 70 -303 35 -446 -48 -192 -157 -422 -272 -573 -147 -193 -377 -360 -638
-463 -41 -16 -84 -34 -95 -39 -11 -5 -65 -23 -120 -40 -121 -38 -274 -65 -455
-80 -452 -36 -594 -65 -741 -151 -117 -68 -194 -172 -236 -319 -16 -57 -18
-101 -17 -340 2 -430 31 -795 84 -1049 24 -115 24 -114 1 -102 -36 20 -130
215 -186 386 -66 200 -115 485 -115 668 0 42 -4 77 -8 77 -15 0 -81 -98 -112
-166 -49 -108 -71 -206 -77 -339 -9 -207 45 -403 158 -575 50 -77 56 -90 38
-90 -12 0 -60 40 -122 103 -116 116 -167 200 -213 352 -24 79 -27 108 -28 235
-1 185 18 267 101 436 20 40 35 75 32 77 -4 3 -323 -3 -794 -17 -110 -3 -490
-12 -845 -21 -706 -16 -812 -23 -934 -62 -140 -44 -266 -156 -336 -299 -54
-109 -73 -211 -67 -349 5 -129 23 -198 78 -307 39 -78 20 -88 -42 -20 -57 63
-142 231 -164 325 -47 209 16 429 172 597 l54 59 -73 3 c-40 2 -174 0 -298 -3
-124 -4 -380 -9 -570 -12 -209 -4 -367 -10 -400 -18 -112 -24 -212 -95 -269
-190 -45 -76 -63 -149 -68 -275 -6 -139 10 -240 58 -360 34 -87 34 -85 14 -77
-18 6 -81 96 -112 158 -104 206 -102 503 4 684 87 149 288 271 520 315 97 18
182 23 598 36 311 10 490 16 1090 40 138 5 374 14 525 20 151 6 385 15 520 20
135 6 288 12 340 14 494 17 1209 51 1226 57 17 6 23 19 28 68 26 233 176 443
396 555 137 70 239 97 415 111 664 52 1006 144 1265 341 172 130 291 288 390
517 72 164 99 344 68 451 -36 124 -136 196 -288 209 -30 2 -104 -1 -165 -8z"/>
<path d="M10252 5665 c-82 -123 -198 -274 -315 -411 -84 -99 -447 -456 -531
-524 -38 -30 -90 -74 -115 -96 -25 -23 -122 -98 -215 -168 -128 -95 -165 -127
-152 -132 15 -6 200 6 352 23 l50 5 84 -128 c45 -71 89 -138 96 -149 8 -11 62
-92 120 -180 59 -88 110 -164 115 -170 10 -10 160 -8 171 3 7 7 -12 61 -163
461 -38 102 -69 193 -69 203 0 10 23 32 58 54 71 46 205 180 258 259 167 249
276 561 335 958 19 129 12 128 -79 -8z"/>
<path d="M1540 3014 c-108 -18 -215 -70 -271 -131 -151 -164 -124 -406 62
-545 35 -26 170 -98 184 -98 4 0 21 -6 38 -14 18 -8 68 -26 112 -41 44 -14 94
-33 112 -41 17 -8 34 -14 38 -14 3 0 27 -14 52 -31 62 -43 79 -86 63 -157 -22
-98 -118 -162 -243 -162 -54 0 -61 4 -286 145 l-231 144 0 -149 0 -150 42 -26
c23 -15 58 -33 77 -41 20 -8 45 -18 56 -23 63 -27 130 -35 285 -35 155 1 169
2 233 27 90 36 149 78 200 143 52 67 71 126 70 225 -1 96 -35 173 -104 241
-69 67 -160 114 -359 184 -266 94 -330 155 -285 270 25 67 93 116 196 144 38
10 51 10 70 0 19 -10 127 -90 219 -162 52 -41 130 -97 135 -97 3 0 5 64 5 143
l0 142 -38 25 c-122 82 -274 111 -432 84z"/>
<path d="M3035 3010 c-166 -43 -233 -79 -344 -190 -93 -92 -138 -169 -180
-303 -28 -87 -30 -264 -6 -359 49 -188 192 -368 354 -443 31 -15 63 -30 72
-35 53 -28 162 -42 286 -38 70 3 139 9 153 15 14 6 43 16 65 23 71 22 177 91
245 160 150 150 229 372 201 568 -24 167 -81 289 -185 397 -85 88 -149 130
-281 185 -42 18 -180 40 -244 39 -36 -1 -97 -9 -136 -19z m281 -175 c83 -40
177 -122 222 -193 55 -85 84 -193 84 -308 1 -171 -46 -289 -156 -399 -187
-186 -374 -186 -562 0 -168 166 -208 434 -99 658 54 109 169 214 282 257 79
30 144 26 229 -15z"/>
<path d="M10700 3019 c-208 -54 -320 -119 -423 -247 -63 -79 -97 -142 -129
-237 -20 -61 -23 -89 -22 -210 0 -124 3 -148 26 -213 79 -220 227 -363 468
-452 60 -22 280 -25 363 -5 114 27 262 107 332 180 24 25 95 114 95 119 0 4
11 24 25 45 13 22 36 77 52 123 24 74 27 96 26 213 -1 111 -5 141 -26 205 -41
121 -83 188 -177 282 -73 72 -102 93 -181 131 -139 67 -320 94 -429 66z m254
-188 c100 -49 144 -85 199 -164 76 -108 101 -194 101 -337 0 -237 -108 -413
-311 -506 -110 -51 -217 -34 -341 53 -144 102 -222 261 -222 453 0 233 120
422 324 512 92 40 150 38 250 -11z"/>
<path d="M4277 3003 c-3 -5 -1 -46 4 -93 5 -47 13 -125 18 -175 5 -49 17 -161
26 -247 16 -149 16 -167 0 -315 -9 -87 -21 -198 -26 -248 -4 -49 -13 -128 -19
-175 -5 -46 -6 -88 -2 -92 5 -5 76 -7 158 -6 l149 3 -3 60 c-1 33 -7 96 -12
140 -28 230 -41 388 -33 396 5 5 39 5 84 0 40 -5 119 -12 174 -16 55 -3 136
-10 180 -15 44 -5 110 -11 148 -14 l67 -4 0 130 0 130 -57 -7 c-32 -4 -107
-11 -168 -16 -208 -15 -360 -29 -385 -33 -52 -9 -53 -3 -35 175 9 90 19 187
23 214 7 50 7 50 47 53 36 3 163 -10 355 -38 114 -16 314 -40 333 -40 15 0 17
12 17 108 0 71 -4 112 -12 120 -9 9 -138 12 -519 12 -279 0 -510 -3 -512 -7z"/>
<path d="M5693 2994 c-5 -14 1 -92 27 -344 32 -309 32 -319 20 -442 -7 -68
-16 -157 -20 -198 -4 -41 -13 -132 -20 -201 -7 -70 -10 -134 -7 -143 6 -14 27
-16 157 -16 l150 0 0 31 c0 18 -4 59 -10 93 -16 104 -42 399 -38 441 3 36 6
40 28 39 104 -7 338 -26 395 -34 39 -5 106 -10 150 -12 l80 -3 0 125 0 125
-35 -1 c-32 -1 -110 -7 -430 -34 -133 -11 -160 -13 -179 -11 -15 1 -12 101 12
326 l12 110 75 0 c68 -1 110 -5 320 -35 100 -14 316 -40 334 -40 14 0 16 15
16 108 0 71 -4 112 -12 120 -9 9 -137 12 -515 12 -452 0 -504 -2 -510 -16z"/>
<path d="M7387 3004 c-3 -3 -3 -20 0 -38 3 -23 -3 -50 -21 -90 -14 -31 -26
-59 -26 -62 0 -3 -9 -24 -19 -47 -11 -23 -85 -202 -166 -397 -81 -195 -158
-378 -171 -407 -13 -28 -24 -54 -24 -57 0 -4 -9 -25 -19 -49 -46 -101 -80
-191 -75 -199 3 -4 40 -8 82 -8 l77 0 14 33 c8 17 20 46 27 62 7 17 24 56 38
88 14 32 26 60 26 62 0 3 9 25 21 50 l21 45 318 0 318 0 21 -67 c30 -96 37
-119 57 -193 10 -36 22 -68 28 -72 6 -4 84 -8 174 -8 133 0 162 3 162 14 0 8
-31 74 -69 148 -224 436 -269 529 -290 603 -12 44 -26 94 -31 110 -5 17 -16
57 -25 90 -17 60 -25 89 -44 155 -36 132 -53 188 -63 213 l-10 27 -163 0 c-89
0 -164 -3 -168 -6z m206 -436 c48 -95 94 -191 103 -213 33 -76 74 -207 68
-216 -7 -12 -521 -12 -528 0 -3 5 1 21 8 37 13 27 207 490 227 542 5 12 15 22
23 22 8 0 49 -72 99 -172z"/>
<path d="M8605 2997 c-6 -13 4 -131 25 -322 37 -333 37 -357 0 -690 -21 -189
-31 -309 -26 -322 5 -11 35 -13 153 -11 l148 3 -1 55 c0 30 -6 102 -12 160
-32 290 -34 332 -20 341 16 11 328 12 345 1 6 -4 32 -63 58 -132 26 -69 50
-134 55 -145 4 -11 15 -40 25 -65 10 -25 21 -54 25 -65 5 -11 18 -47 30 -80
12 -33 27 -63 33 -67 17 -11 305 -10 311 0 3 5 -69 127 -159 270 -90 144 -165
269 -167 279 -2 12 12 22 52 37 75 29 112 50 153 88 82 79 123 187 114 308
-11 163 -105 281 -277 349 -27 10 -129 15 -447 18 -356 4 -414 3 -418 -10z
m709 -142 c133 -39 200 -146 181 -288 -8 -56 -23 -85 -69 -135 -65 -70 -144
-85 -389 -76 -98 4 -180 10 -182 14 -3 4 2 77 11 161 9 85 19 190 23 235 4 44
11 86 15 92 11 19 343 16 410 -3z"/>
</g>
</svg>
